<mxfile host="app.diagrams.net" modified="2023-02-07T15:19:45.746Z" agent="5.0 (X11; Ubuntu)" etag="oy1oQAxXdx2_tcFcYHQz" version="20.8.16" type="github">
  <diagram name="Page-1" id="RtDMrsuRrKy-FX6PkPgp">
    <mxGraphModel dx="2000" dy="1155" grid="1" gridSize="10" guides="1" tooltips="1" connect="1" arrows="1" fold="1" page="1" pageScale="1" pageWidth="10000" pageHeight="10000" math="0" shadow="0">
      <root>
        <mxCell id="0" />
        <mxCell id="1" parent="0" />
        <mxCell id="eb2Y9xH1g2rXMHEwuqxO-7" value="Strategies Executer" style="whiteSpace=wrap;html=1;aspect=fixed;" parent="1" vertex="1">
          <mxGeometry x="1060" y="230" width="410" height="410" as="geometry" />
        </mxCell>
        <mxCell id="Sp7Xh5FEGc6szn5BOsWU-2" value="Vault" style="whiteSpace=wrap;html=1;aspect=fixed;" vertex="1" parent="1">
          <mxGeometry x="440" y="230" width="410" height="410" as="geometry" />
        </mxCell>
        <mxCell id="Sp7Xh5FEGc6szn5BOsWU-3" value="Set strategy and money" style="rounded=0;whiteSpace=wrap;html=1;" vertex="1" parent="1">
          <mxGeometry x="450" y="240" width="120" height="60" as="geometry" />
        </mxCell>
        <mxCell id="Sp7Xh5FEGc6szn5BOsWU-4" value="suppress money + strategy account associated" style="rounded=0;whiteSpace=wrap;html=1;" vertex="1" parent="1">
          <mxGeometry x="450" y="290" width="120" height="60" as="geometry" />
        </mxCell>
        <mxCell id="Sp7Xh5FEGc6szn5BOsWU-5" value="Send account to &lt;br&gt;Strategies executer" style="rounded=0;whiteSpace=wrap;html=1;" vertex="1" parent="1">
          <mxGeometry x="450" y="350" width="120" height="60" as="geometry" />
        </mxCell>
        <mxCell id="Sp7Xh5FEGc6szn5BOsWU-6" value="Put more money" style="rounded=0;whiteSpace=wrap;html=1;" vertex="1" parent="1">
          <mxGeometry x="450" y="530" width="120" height="60" as="geometry" />
        </mxCell>
        <mxCell id="Sp7Xh5FEGc6szn5BOsWU-7" value="withdraw money" style="rounded=0;whiteSpace=wrap;html=1;" vertex="1" parent="1">
          <mxGeometry x="450" y="470" width="120" height="60" as="geometry" />
        </mxCell>
        <mxCell id="Sp7Xh5FEGc6szn5BOsWU-8" value="Receive strategies data" style="rounded=0;whiteSpace=wrap;html=1;" vertex="1" parent="1">
          <mxGeometry x="1070" y="240" width="120" height="60" as="geometry" />
        </mxCell>
        <mxCell id="Sp7Xh5FEGc6szn5BOsWU-9" value="Dispatch money to &lt;br&gt;other contracts." style="rounded=0;whiteSpace=wrap;html=1;" vertex="1" parent="1">
          <mxGeometry x="1070" y="300" width="120" height="60" as="geometry" />
        </mxCell>
        <mxCell id="Sp7Xh5FEGc6szn5BOsWU-10" value="Withdraw call from contracts to original owner if needed" style="rounded=0;whiteSpace=wrap;html=1;" vertex="1" parent="1">
          <mxGeometry x="1070" y="360" width="120" height="60" as="geometry" />
        </mxCell>
        <mxCell id="Sp7Xh5FEGc6szn5BOsWU-11" value="WIthdraw to Vault" style="rounded=0;whiteSpace=wrap;html=1;" vertex="1" parent="1">
          <mxGeometry x="1070" y="420" width="120" height="60" as="geometry" />
        </mxCell>
      </root>
    </mxGraphModel>
  </diagram>
</mxfile>
